HIERARCHY
ROOT Hips
{
  OFFSET 196.326 95.9168 97.7182
  CHANNELS 6 Xposition Yposition Zposition Zrotation Xrotation Yrotation
  JOINT LeftUpLeg
  {
    OFFSET 8.64259 1.95398 -2.38835
    CHANNELS 3 Zrotation Xrotation Yrotation
    JOINT LeftLeg
    {
      OFFSET 43.7702 0 0
      CHANNELS 3 Zrotation Xrotation Yrotation
      JOINT LeftFoot
      {
        OFFSET 40.6238 0 0
        CHANNELS 3 Zrotation Xrotation Yrotation
        JOINT LeftToeBase
        {
          OFFSET 12.7242 0 0
          CHANNELS 3 Zrotation Xrotation Yrotation
          End Site
          {
            OFFSET 0 0 0
          }
        }
      }
    }
  }
  JOINT RightUpLeg
  {
    OFFSET -8.2249 1.95398 -2.59336
    CHANNELS 3 Zrotation Xrotation Yrotation
    JOINT RightLeg
    {
      OFFSET 43.5653 0 0
      CHANNELS 3 Zrotation Xrotation Yrotation
      JOINT RightFoot
      {
        OFFSET 40.6238 0 0
        CHANNELS 3 Zrotation Xrotation Yrotation
        JOINT RightToeBase
        {
          OFFSET 12.7242 0 0
          CHANNELS 3 Zrotation Xrotation Yrotation
          End Site
          {
            OFFSET 0 0 0
          }
        }
      }
    }
  }
  JOINT Spine
  {
    OFFSET 0.165834 0.87714 6.61349
    CHANNELS 3 Zrotation Xrotation Yrotation
    JOINT Spine1
    {
      OFFSET 7.38963 1.71661e-005 0
      CHANNELS 3 Zrotation Xrotation Yrotation
      JOINT Spine2
      {
        OFFSET 11.9445 1.14441e-005 0
        CHANNELS 3 Zrotation Xrotation Yrotation
        JOINT Spine3
        {
          OFFSET 14.7254 4.19617e-005 0
          CHANNELS 3 Zrotation Xrotation Yrotation
          JOINT Spine4
          {
            OFFSET 10.9679 0 0
            CHANNELS 3 Zrotation Xrotation Yrotation
            JOINT RightShoulder
            {
              OFFSET 2.46616 -1.6653 3.69651
              CHANNELS 3 Zrotation Xrotation Yrotation
              JOINT RightArm
              {
                OFFSET 13.0012 0 0
                CHANNELS 3 Zrotation Xrotation Yrotation
                JOINT RightForeArm
                {
                  OFFSET 28.7848 1.52588e-005 0
                  CHANNELS 3 Zrotation Xrotation Yrotation
                  JOINT RightHand
                  {
                    OFFSET 26.5688 1.52588e-005 0
                    CHANNELS 3 Zrotation Xrotation Yrotation
                    End Site
                    {
                      OFFSET 0 0 0
                    }
                  }
                }
              }
            }
            JOINT LeftShoulder
            {
              OFFSET 2.38034 -1.29275 -3.75231
              CHANNELS 3 Zrotation Xrotation Yrotation
              JOINT LeftArm
              {
                OFFSET 16.3182 6.10351e-005 0
                CHANNELS 3 Zrotation Xrotation Yrotation
                JOINT LeftForeArm
                {
                  OFFSET 27.0901 0 0
                  CHANNELS 3 Zrotation Xrotation Yrotation
                  JOINT LeftHand
                  {
                    OFFSET 24.5451 1.52588e-005 0
                    CHANNELS 3 Zrotation Xrotation Yrotation
                    End Site
                    {
                      OFFSET 0 0 0
                    }
                  }
                }
              }
            }
            JOINT Neck
            {
              OFFSET 5.0226 -0.0266342 0
              CHANNELS 3 Zrotation Xrotation Yrotation
              JOINT Head
              {
                OFFSET 6.69363 2.86102e-005 0
                CHANNELS 3 Zrotation Xrotation Yrotation
                End Site
                {
                  OFFSET 0 0 0
                }
              }
            }
          }
        }
      }
    }
  }
}
MOTION
Frames:	6
Frame Time:	0.0416667
25.0164 79.8228 -265.806 62.7076 -19.7038 84.3752 161.2 54.5629 101.146 -91.4207 24.6716 37.0353 150.14 24.764 -55.0787 4.16631 -26.797 -2.50708 -149.699 28.4266 137.861 33.0428 25.7872 -56.1045 4.61209 4.33306 8.45492 80.6012 -18.5349 -51.2289 -7.30169 6.03451 -93.5099 14.5813 -16.1836 -4.74474 3.00809 -16.3761 -4.0101 -20.1146 -14.002 -9.46341 -0.101904 -14.002 -9.4634 82.7501 -50.4312 -111.651 34.0433 -4.4424 44.267 -34.0038 41.5166 -130.966 -2.68119 -0.65648 -62.3814 -98.6194 -39.4844 61.9318 -38.7479 9.69761 20.6063 18.0637 -4.32788 -93.2994 34.6093 4.19222 8.3889 5.32578 6.8745 0.379004 14.5032 7.65877 5.09905 
24.2683 82.6284 -260.463 60.9741 -21.0345 83.5857 151.333 42.7981 116.783 -90.5356 44.6916 36.4406 134.343 36.5127 -27.2057 5.85467 -20.8264 -10.6464 -160.107 32.1381 129.49 9.17212 50.5771 -29.0099 22.6355 4.68738 6.2368 90.1422 -13.3736 -33.4975 -6.75893 5.91047 -93.6309 14.8061 -15.1695 -5.09073 3.2185 -15.3783 -4.40415 -19.7971 -12.9346 -9.46814 0.215518 -12.9346 -9.46814 82.5097 -49.0071 -112.526 33.6722 -0.843476 40.6181 -27.7201 35.4169 -134.648 0.473109 -2.07673 -60.1714 -99.4028 -40.9506 61.3075 -39.0487 8.91677 21.5233 20.0757 -0.914611 -84.2781 35.8592 4.57436 9.03364 16.4676 4.21986 1.43252 1.23934 4.07124 5.32575 
23.1551 84.3643 -257.228 58.963 -26.3185 82.0609 150.332 41.1565 119.977 -84.2844 40.9694 26.4165 89.5459 24.4578 6.46675 37.0542 8.27623 -28.8279 -160.923 24.1314 127.064 12.4811 59.879 -16.5597 29.3281 1.60991 2.16444 90.5746 -2.8769 -13.3569 -5.9734 5.8527 -93.5161 14.9407 -13.5599 -5.06658 3.33434 -13.7693 -4.45532 -19.558 -11.4095 -8.94117 0.454668 -11.4095 -8.94117 83.0694 -46.9398 -112.433 36.4787 1.53197 40.1689 -17.8126 25.2324 -140.087 10.1694 -5.3903 -46.2811 -98.7124 -41.7987 62.7624 -40.6013 8.66539 26.2036 17.1926 0.444051 -81.5119 36.0635 4.42672 8.52018 16.7797 3.62223 2.03556 0.738981 3.18504 3.81207 
21.7218 88.0687 -254.314 64.455 -34.4986 84.9871 155.763 46.2154 110.759 -81.9182 39.6603 20.0867 68.6621 12.2009 21.0818 53.2405 21.9907 -16.8553 -159.959 15.0557 129.617 10.293 65.4522 -11.2126 36.9713 1.04099 1.13478 84.7989 5.70113 3.97373 -5.1714 6.48737 -92.9491 13.7136 -11.6858 -4.37835 2.09021 -11.8669 -3.85375 -20.7077 -9.82932 -7.70918 -0.69501 -9.82932 -7.70919 84.3165 -45.3012 -111.085 39.7581 0.0671957 35.7326 -10.0483 15.3025 -137.094 46.7917 2.20052 -1.48949 -96.68 -41.0167 65.6891 -43.8036 9.69708 31.5517 15.4041 -0.403449 -82.2848 36.6962 4.31749 8.00761 15.2192 2.06923 1.68262 1.94213 1.73553 2.3667 
20.7895 90.9019 -251.126 73.7218 -41.5023 89.4528 167.826 46.5248 98.0899 -70.5485 44.3564 13.6802 64.9925 7.72018 14.4405 49.9859 25.8054 8.05174 -159.397 3.26725 130.714 1.17427 67.0719 -1.27369 45.5212 0.255789 0.195172 59.1494 7.74264 27.5046 -4.49844 7.21516 -92.1918 12.3273 -9.97846 -3.24933 0.69204 -10.1117 -2.80307 -22.0519 -8.53943 -6.11367 -2.03929 -8.53943 -6.11366 85.3323 -43.8689 -109.975 35.8464 -17.517 13.021 2.28755 13.281 -118.211 81.5474 21.2911 17.9699 -94.959 -39.2617 67.8375 -46.9769 9.74446 36.5832 15.6699 -1.17772 -84.3374 37.1538 4.23466 7.62908 14.4694 0.836522 1.19096 2.47568 0.609787 1.36792 
20.3611 92.5278 -246.714 83.4286 -48.4516 93.4397 179.657 40.957 88.1921 -50.0886 54.2205 2.45113 54.0826 0.584312 12.8476 52.2237 28.0722 6.81442 -160.29 -10.9975 127.687 -5.329 51.5469 6.38053 40.0566 0.407031 0.716565 46.4695 3.20754 19.7255 -3.81168 7.80499 -91.4744 11.2053 -8.27176 -2.12752 -0.440334 -8.35732 -1.75902 -23.1339 -7.24871 -4.52581 -3.12129 -7.24871 -4.5258 85.8942 -42.2079 -109.651 36.9582 -19.4878 13.6077 -4.89334 8.89926 -108.722 89.7035 15.6497 9.84322 -94.9159 -38.8446 67.7548 -48.6224 8.84054 39.5833 15.2906 -1.7823 -85.5216 35.8968 4.08377 7.66405 14.9216 0.542916 2.22037 1.80166 -0.0460422 0.299812 
